<?xml version="1.0" encoding="utf-8"?>
<!-- Generator: Adobe Illustrator 24.3.0, SVG Export Plug-In . SVG Version: 6.00 Build 0)  -->
<svg version="1.1" id="Layer_1" xmlns="http://www.w3.org/2000/svg" xmlns:xlink="http://www.w3.org/1999/xlink" x="0px" y="0px"
	 viewBox="0 0 200 50.97" style="enable-background:new 0 0 200 50.97;" xml:space="preserve">
<style type="text/css">
	.st0{fill:#1F58A5;}
	.st1{fill:#F4932C;}
	.st2{fill:#475468;}
</style>
<g>
	<g id="Layer_2_1_">
		<g id="TM">
			<path class="st0" d="M78.22,28.32l5.2,1.65c-0.79,2.89-2.12,5.05-3.97,6.47s-4.2,2.12-7.06,2.12c-3.54,0-6.43-1.21-8.7-3.61
				c-2.27-2.4-3.41-5.69-3.41-9.88c0-4.43,1.14-7.85,3.42-10.31c2.29-2.46,5.3-3.67,9.02-3.67c3.25,0,5.88,0.96,7.93,2.88
				c1.21,1.14,2.12,2.76,2.72,4.9l-5.32,1.27c-0.26-1.29-0.95-2.44-1.97-3.25c-1-0.79-2.21-1.19-3.63-1.19
				c-1.97,0-3.58,0.7-4.79,2.12c-1.23,1.42-1.84,3.71-1.84,6.87c0,3.37,0.61,5.75,1.82,7.17c1.21,1.42,2.78,2.14,4.71,2.14
				c1.36,0.02,2.67-0.45,3.69-1.36C77.03,31.69,77.77,30.27,78.22,28.32z"/>
			<path class="st0" d="M88.55,38.1V11.52h5.09V38.1H88.55z"/>
			<path class="st0" d="M99.41,16.23v-4.71h5.09v4.71H99.41z M99.41,38.1V18.84h5.09V38.1H99.41z"/>
			<path class="st0" d="M127.81,38.1h-5.09v-9.84c0-2.08-0.11-3.42-0.32-4.03c-0.19-0.57-0.57-1.08-1.06-1.42
				c-0.53-0.34-1.14-0.53-1.76-0.51c-0.85-0.02-1.68,0.25-2.38,0.72c-0.68,0.45-1.19,1.14-1.44,1.93c-0.26,0.79-0.4,2.27-0.4,4.43
				v8.72h-5.09V18.84H115v2.84c1.68-2.18,3.8-3.27,6.36-3.27c1.06-0.02,2.1,0.19,3.08,0.61c0.81,0.32,1.55,0.87,2.1,1.55
				c0.47,0.64,0.81,1.36,1,2.14c0.19,0.79,0.28,1.93,0.28,3.42V38.1H127.81z"/>
			<path class="st0" d="M133.52,16.23v-4.71h5.09v4.71H133.52z M133.52,38.1V18.84h5.09V38.1H133.52z"/>
			<path class="st1" d="M143.21,28.19c0-1.72,0.44-3.41,1.25-4.92c0.79-1.53,2.02-2.8,3.56-3.61c1.57-0.85,3.33-1.27,5.13-1.25
				c2.91,0,5.3,0.95,7.15,2.84c1.85,1.89,2.8,4.28,2.8,7.17c0,2.91-0.95,5.32-2.82,7.25c-1.87,1.93-4.24,2.88-7.09,2.88
				c-1.76,0-3.48-0.42-5.05-1.19c-1.55-0.76-2.84-1.99-3.65-3.5C143.65,32.27,143.21,30.4,143.21,28.19z M148.43,28.47
				c0,1.91,0.45,3.37,1.36,4.39c1.61,1.85,4.43,2.04,6.26,0.44c0.15-0.13,0.3-0.28,0.44-0.44c0.91-1,1.34-2.48,1.34-4.43
				c0-1.89-0.45-3.33-1.34-4.35c-1.61-1.85-4.43-2.04-6.26-0.44c-0.15,0.13-0.3,0.28-0.44,0.44
				C148.89,25.08,148.43,26.56,148.43,28.47L148.43,28.47z"/>
			<path class="st1" d="M185.14,38.1h-5.09v-9.84c0-2.08-0.11-3.42-0.32-4.03c-0.19-0.57-0.57-1.08-1.06-1.42
				c-0.53-0.34-1.14-0.53-1.76-0.51c-0.85-0.02-1.68,0.25-2.38,0.72c-0.68,0.45-1.19,1.14-1.44,1.93c-0.26,0.79-0.4,2.27-0.4,4.43
				v8.72h-5.09V18.84h4.73v2.84c1.68-2.18,3.8-3.27,6.34-3.27c1.06-0.02,2.1,0.19,3.08,0.61c0.83,0.32,1.55,0.85,2.12,1.55
				c0.47,0.64,0.81,1.36,1,2.14c0.19,0.79,0.28,1.93,0.28,3.42L185.14,38.1z"/>
			<path class="st1" d="M36.83,9.26c-4.75,0-9.31,1.97-12.54,5.45c6.51-4.41,15.36-2.72,19.77,3.78s2.72,15.36-3.78,19.77
				c-4.82,3.27-11.16,3.27-15.99,0c6.51,6.92,17.41,7.27,24.33,0.76s7.27-17.41,0.76-24.33C46.12,11.23,41.57,9.26,36.83,9.26z"/>
			<path class="st0" d="M17.75,36.56c-3.86-6.17-3.86-14,0-20.17c5.41-9.35,17.22-12.81,26.79-7.81
				c-9.89-8.04-24.43-6.55-32.47,3.33s-6.57,24.43,3.33,32.47c8.49,6.91,20.66,6.91,29.14,0C34.95,49.37,23.15,45.93,17.75,36.56z"
				/>
		</g>
	</g>
	<path class="st2" d="M188.52,8.74c-3.03,0-5.51,2.46-5.51,5.51c0,3.05,2.48,5.52,5.51,5.52c3.05,0,5.51-2.5,5.51-5.52
		C194.03,11.22,191.55,8.74,188.52,8.74z M188.5,18.99c-2.64,0-4.78-2.14-4.78-4.78s2.14-4.78,4.78-4.78c2.64,0,4.78,2.14,4.78,4.78
		S191.14,18.99,188.5,18.99z"/>
	<path class="st2" d="M188.33,13.88c0.23,0,0.41-0.04,0.51-0.13c0.1-0.09,0.16-0.23,0.16-0.43s-0.06-0.35-0.16-0.43
		s-0.28-0.13-0.51-0.13h-0.48v1.13H188.33 M187.86,14.66v1.67h-1.14v-4.42h1.74c0.58,0,1.01,0.1,1.27,0.29
		c0.28,0.19,0.41,0.51,0.41,0.93c0,0.29-0.07,0.54-0.22,0.72c-0.14,0.19-0.35,0.32-0.64,0.41c0.16,0.04,0.29,0.12,0.42,0.25
		c0.13,0.13,0.25,0.32,0.38,0.56l0.62,1.25h-1.22l-0.54-1.1c-0.1-0.22-0.22-0.38-0.33-0.45c-0.12-0.09-0.26-0.13-0.45-0.13h-0.3"/>
</g>
</svg>
